<svg fill="none" height="42" viewBox="0 0 42 42" width="42" xmlns="http://www.w3.org/2000/svg"> <path d="M19.388 15.1859C13.6084 17.5115 8.58665 19.7438 8.11291 20.209C7.63917 20.6741 8.68142 21.5114 10.7659 22.1624C14.1768 23.2787 14.5558 23.1856 19.8619 19.5578C25.831 15.465 27.4417 15.744 22.4199 19.8369C20.7145 21.2322 19.009 22.9066 18.63 23.5577C17.5878 25.2321 27.0627 31.1853 28.4839 29.79C29.5261 28.7668 31.895 17.2324 31.9896 13.0464C32.0844 11.9302 31.5159 11 30.9475 11C30.2842 11.093 25.0729 12.9534 19.388 15.1859Z" fill="#2BA0D9"></path> <circle cx="21" cy="21" r="20.5" stroke="#E2E2E2"></circle> </svg>